<svg enable-background="new 0 0 422.289 486.385" height="486.385" viewBox="0 0 422.289 486.385" width="422.289" xmlns="http://www.w3.org/2000/svg"><g transform="translate(-28.700307 -28.850277)"><g transform="matrix(2.2376732 0 0 2.2376732 -35.521598 -35.707211)"><path d="m96.965 113.462c-10.425 0-18.975-8.475-18.975-18.975s8.475-18.975 18.975-18.975 18.975 8.475 18.975 18.975c.001 10.5-8.474 18.975-18.975 18.975zm0-30.15c-6.15 0-11.175 5.025-11.175 11.175s5.025 11.175 11.175 11.175 11.175-5.025 11.175-11.175-5.025-11.175-11.175-11.175z" fill="#f00"/><path d="m160.416 114.662c-.15 0-.375 0-.525 0l-28.8-3.75c-1.05-.15-1.95-.675-2.55-1.5s-.9-1.875-.75-2.85l3.75-28.8c.3-2.1 2.25-3.675 4.35-3.375l28.8 3.75c1.05.15 1.95.675 2.55 1.5s.9 1.875.75 2.85l-3.75 28.8c-.225 1.95-1.876 3.375-3.825 3.375zm-24.375-11.025 21 2.775 2.775-21-21-2.775z" fill="#ff5ddc"/><path d="m97.49 66.062c-.225 0-.525 0-.825-.075-2.1-.45-3.45-2.475-3-4.575l6.15-29.475c.45-2.1 2.475-3.45 4.575-3s3.45 2.475 3 4.575l-6.15 29.475c-.3 1.8-1.949 3.075-3.75 3.075z" fill="#027fe1"/><path d="m115.34 54.362c-.225 0-.525 0-.825-.075l-29.475-6.15c-2.1-.45-3.45-2.475-3-4.575s2.475-3.45 4.575-3l29.475 6.15c2.1.45 3.45 2.475 3 4.575-.374 1.8-1.949 3.075-3.75 3.075z" fill="#027fe1"/><path d="m135.591 63.962c-.975 0-1.875-.375-2.55-.975-1.05-.9-1.5-2.325-1.2-3.675l5.325-25.35c.3-1.35 1.275-2.475 2.55-2.85 1.35-.45 2.775-.15 3.825.75l19.425 17.1c1.05.9 1.5 2.325 1.2 3.675s-1.275 2.475-2.55 2.925l-24.75 8.175c-.45.15-.9.225-1.275.225zm7.724-21.9-2.55 12.225 11.925-3.975z" fill="#8aee49"/></g><path d="m450.645 409.688c-.667-31.383-1.511-41.283-4.362-53.36-9.901-41.285-26.51-73.002-51.517-97.838-33.394-33.222-73.162-36.236-120.815-9.061l-13.262 7.554s-9.46 0-20.819 0c-11.354 0-20.819 0-20.819 0l-13.259-7.554c-47.653-27.183-87.427-24.161-120.819 9.061-25.002 24.836-41.615 56.553-51.515 97.838-2.859 12.077-3.691 21.979-4.361 53.36-1.18 45.979.501 61.922 7.717 76.681 8.222 17.124 25.168 28.866 41.11 28.866 19.296 0 53.194-26.015 77.187-59.23l10.239-14.103h74.513 74.517l10.243 14.103c23.994 33.217 57.89 59.23 77.188 59.23 15.942 0 32.889-11.742 41.116-28.866 7.214-14.759 8.899-30.705 7.718-76.681zm-266.301-60.078h-22.662v22.65c0 7.054-5.871 12.918-12.914 12.918-7.05 0-12.928-5.864-12.928-12.918v-22.65h-22.65c-7.046 0-12.917-5.878-12.917-12.924s5.871-12.924 12.917-12.924h22.651v-22.649c0-7.049 5.875-12.924 12.928-12.924 7.043 0 12.914 5.875 12.914 12.924v22.649h22.662c7.042 0 12.921 5.871 12.921 12.924-.173 7.215-5.879 12.924-12.922 12.924zm166.797-70.813c10.907 0 19.803 8.896 19.803 19.803 0 10.905-8.896 19.798-19.803 19.798-10.913 0-19.802-8.886-19.802-19.798.169-10.908 8.888-19.803 19.802-19.803zm-64.271 38.263c0-10.91 8.893-19.804 19.804-19.804 10.908 0 19.794 8.894 19.794 19.804 0 10.911-8.886 19.799-19.794 19.799-10.911 0-19.804-8.887-19.804-19.799zm41.106 66.951c-10.906 0-19.791-8.896-19.791-19.799 0-10.905 8.885-19.799 19.791-19.799 10.914 0 19.806 8.891 19.806 19.799-.001 10.903-8.894 19.799-19.806 19.799zm41.616-19.799c-10.905 0-19.799-8.896-19.799-19.799 0-10.91 8.894-19.805 19.799-19.805 10.913 0 19.805 8.895 19.805 19.805-.001 11.069-8.895 19.799-19.805 19.799z" fill="#808080"/></g></svg>