<svg viewBox="-290 382 30 30" xmlns="http://www.w3.org/2000/svg"><path d="m-267.5 385.6-9.5-.4-9.5.4s-6.7 8.4 0 22.5h19c6.7-14 0-22.5 0-22.5" fill="#6d6d6d"/><path d="m-281.7 385.2s-4.3 9.5 0 24.1h4.7v-24.5zm14.2.4-4.7-.2c.6 1.4 3.7 10 .2 22.8h4.5c6.7-14.1 0-22.6 0-22.6" fill="#656565"/><path d="m-287.3 408.2h20.5v3.2h-20.5zm0-25.6h20.5v3.2h-20.5zm23.3 11.8h-26l.5-3.2h25zm-26 6.3h26l-.5 3.2h-25z" fill="#636363"/><path d="m-269.1 392.7-4.2-1.2-.3.7-.2-.4-3.3.6-.1 2.7s-1.6-5.1-7.7-2.8l2.4 10.1s4.2.8 5.1-2.6v2.3h3.2v-.3l.3.4 3.7-1.2-1.9-3.8zm-11.5 5.1-.3-1.5s.5 0 .6.7c.2.7-.3.8-.3.8" fill="#4f4f4f"/><g fill="#bfbfbf"><path d="m-281.5 402h-.6c-.1 0-.2-.1-.2-.2l-2.1-9c0-.1 0-.2.1-.2.4-.2 1.1-.4 2-.4.7 0 2.1.1 3.2 1 1.1.8 1.7 2.2 1.8 3.9s-.3 3-1.2 3.8c-.9.9-2.3 1.1-3 1.1m-.3-.5h.3c.6 0 1.8-.1 2.7-1 .7-.8 1.1-1.9 1-3.5s-.6-2.8-1.6-3.6-2.3-.9-2.9-.9c-.7 0-1.3.1-1.6.3zm8.4.4c-.1 0-.2-.1-.2-.1l-.6-1.3v1.1c0 .1-.1.2-.2.2l-2.2.2c-.1 0-.1 0-.2-.1 0 0-.1-.1-.1-.2l.3-8.8c0-.1.1-.2.2-.2l2.2-.4c.1 0 .1 0 .2.1.1 0 .1.1.1.2v1.7l.9-2c0-.1.2-.2.3-.1l3 .7c.1 0 .1.1.2.1v.2l-2.8 4 1.9 3.6v.2c0 .1-.1.1-.1.1zm-2.8-8.9-.3 8.4 1.7-.1.1-1.8c0-.1.1-.2.2-.2s.2 0 .3.1l.9 2 2.2-.7-1.9-3.5v-.2l2.7-3.8-2.5-.6-1.2 2.9c0 .1-.2.2-.3.1-.1 0-.2-.1-.2-.2v-2.5z"/><path d="m-280.9 398.9c-.1 0-.2-.1-.3-.2l-.7-3.1c0-.1 0-.2.1-.3.1 0 .4-.2.8-.2.5 0 1.4.2 1.6 1.7.1.6 0 1.1-.3 1.5-.3.6-1 .6-1.2.6m-.5-3.2.6 2.7c.2 0 .6-.1.8-.4.2-.2.3-.6.2-1.1-.1-.9-.5-1.3-1.2-1.3-.1.1-.2.1-.4.1"/></g><path d="m-284.4 382.9h6v2.4h-6zm0 25.7h6v2.4h-6z" fill="#737373"/></svg>