<svg enable-background="new 0 0 88.59 186.376" viewBox="0 0 88.59 186.376" xmlns="http://www.w3.org/2000/svg" xmlns:xlink="http://www.w3.org/1999/xlink"><linearGradient id="a" gradientTransform="matrix(0 1 -1 0 1129.554 -159.8805)" gradientUnits="userSpaceOnUse" x1="312.9354" x2="291.9762" y1="1095.2787" y2="1074.3195"><stop offset="0" stop-color="#a4a5a9"/><stop offset="1" stop-color="#e6e6e7"/></linearGradient><linearGradient id="b" gradientTransform="matrix(0 1 -1 0 1129.554 -159.8805)" gradientUnits="userSpaceOnUse" x1="292.0519" x2="312.9278" y1="1095.271" y2="1074.3951"><stop offset="0" stop-color="#211c1d" stop-opacity="0"/><stop offset=".0448" stop-color="#211c1d" stop-opacity=".0896"/><stop offset=".5" stop-color="#211c1d"/><stop offset=".9552" stop-color="#211c1d" stop-opacity=".0896"/><stop offset="1" stop-color="#211c1d" stop-opacity="0"/></linearGradient><linearGradient id="c" gradientTransform="matrix(0 -1 1 0 2513.8525 -3758.8711)" gradientUnits="userSpaceOnUse" x1="-3911.9182" x2="-3891.0425" y1="-2458.6936" y2="-2479.5693"><stop offset="0" stop-color="#fff" stop-opacity="0"/><stop offset=".5" stop-color="#fff"/><stop offset="1" stop-color="#fff" stop-opacity="0"/></linearGradient><radialGradient id="d" cx="55.7433" cy="142.4042" gradientTransform="matrix(.866 -.5 .35 .6062 -42.3733 83.9479)" gradientUnits="userSpaceOnUse" r="20.5107"><stop offset="0" stop-color="#96b7d1"/><stop offset=".1142" stop-color="#88b1cf"/><stop offset=".3714" stop-color="#6ba5cb"/><stop offset=".6124" stop-color="#509cc8"/><stop offset=".829" stop-color="#3796c5"/><stop offset="1" stop-color="#2a94c5"/></radialGradient><ellipse cx="44.789" cy="142.575" fill="#211c1d" rx="43.801" ry="43.801" transform="matrix(.7071 -.7071 .7071 .7071 -87.6976 73.4299)"/><g fill="#808094" opacity=".1"><path d="m44.789 183.157 8.892-8.59h-4.343v-9.829h-9.098v9.829h-4.343z"/><path d="m73.485 171.271.213-12.362-3.071 3.071-6.95-6.95-6.433 6.434 6.95 6.949-3.072 3.071z"/><path d="m85.371 142.576-8.591-8.893v4.344h-9.828v9.098h9.828v4.343z"/><path d="m73.485 113.88-12.362-.213 3.071 3.071-6.95 6.949 6.433 6.434 6.95-6.95 3.071 3.071z"/><path d="m44.789 101.993-8.892 8.591h4.343v9.829h9.098v-9.829h4.343z"/><path d="m16.093 113.879-.213 12.363 3.071-3.071 6.95 6.95 6.433-6.434-6.949-6.949 3.071-3.072z"/><path d="m4.207 142.575 8.591 8.892v-4.343h9.828v-9.098h-9.828v-4.343z"/><path d="m16.093 171.271 12.362.213-3.071-3.071 6.95-6.95-6.433-6.433-6.95 6.95-3.071-3.071z"/></g><path d="m44.295 186.37c-23.963-.265-43.307-19.769-43.307-43.795 0-24.025 19.344-43.529 43.307-43.795-.165-.002-.329-.006-.494-.006-24.191.001-43.801 19.611-43.801 43.801 0 24.191 19.61 43.801 43.801 43.801.165 0 .329-.004.494-.006z" fill="#6d6e6f"/><circle cx="44.755" cy="142.575" fill="url(#a)" r="14.82"/><circle cx="44.755" cy="142.575" fill="#211c1d" opacity=".3" r="11.808"/><path d="m59.482 142.609c0-8.153-6.609-14.761-14.762-14.761-8.152 0-14.761 6.609-14.761 14.761s6.609 14.761 14.761 14.761c8.153.001 14.762-6.608 14.762-14.761zm-28.728-.182c0-7.814 6.335-14.149 14.149-14.149s14.149 6.335 14.149 14.149-6.335 14.149-14.149 14.149-14.149-6.335-14.149-14.149z" fill="url(#b)" opacity=".15"/><path d="m29.96 142.609c0 8.152 6.609 14.762 14.761 14.762 8.153 0 14.761-6.609 14.761-14.762s-6.609-14.761-14.761-14.761c-8.153 0-14.761 6.609-14.761 14.761zm28.728.182c0 7.814-6.335 14.149-14.149 14.149s-14.149-6.335-14.149-14.149 6.335-14.149 14.149-14.149c7.814.001 14.149 6.335 14.149 14.149z" fill="url(#c)" opacity=".4"/><circle cx="55.743" cy="142.404" fill="url(#d)" r="20.511"/><circle cx="44.295" cy="59.698" fill="#2a94c5" r="17.455"/><circle cx="44.295" cy="59.698" fill="#1d86ac" r="13.877"/><circle cx="44.295" cy="17.455" fill="#2a94c5" r="17.455"/><circle cx="44.295" cy="17.455" fill="#1d86ac" r="13.877"/></svg>